<?xml version="1.0" encoding="UTF-8" standalone="no"?>
<svg
   xmlns:dc="http://purl.org/dc/elements/1.1/"
   xmlns:cc="http://creativecommons.org/ns#"
   xmlns:rdf="http://www.w3.org/1999/02/22-rdf-syntax-ns#"
   xmlns:svg="http://www.w3.org/2000/svg"
   xmlns="http://www.w3.org/2000/svg"
   xmlns:sodipodi="http://sodipodi.sourceforge.net/DTD/sodipodi-0.dtd"
   xmlns:inkscape="http://www.inkscape.org/namespaces/inkscape"
   id="Layer_1"
   version="1.1"
   viewBox="0 0 650 650"
   xml:space="preserve"
   inkscape:version="0.92.5 (2060ec1f9f, 2020-04-08)"
   sodipodi:docname="settings.svg"
   width="650"
   height="650"
   inkscape:export-filename="/home/igor/Work/Projects/stock/stock/mobile/img/settings_48x48.png"
   inkscape:export-xdpi="7.0892305"
   inkscape:export-ydpi="7.0892305"><metadata
     id="metadata3422"><rdf:RDF><cc:Work
         rdf:about=""><dc:format>image/svg+xml</dc:format><dc:type
           rdf:resource="http://purl.org/dc/dcmitype/StillImage" /><dc:title></dc:title></cc:Work></rdf:RDF></metadata><defs
     id="defs3420" /><sodipodi:namedview
     pagecolor="#ffffff"
     bordercolor="#666666"
     borderopacity="1"
     objecttolerance="10"
     gridtolerance="10"
     guidetolerance="10"
     inkscape:pageopacity="0"
     inkscape:pageshadow="2"
     inkscape:window-width="1920"
     inkscape:window-height="1015"
     id="namedview3418"
     showgrid="true"
     inkscape:zoom="0.6540404"
     inkscape:cx="31.552122"
     inkscape:cy="308.03683"
     inkscape:window-x="0"
     inkscape:window-y="0"
     inkscape:window-maximized="1"
     inkscape:current-layer="Layer_1"
     inkscape:snap-object-midpoints="true"
     inkscape:snap-center="false"
     inkscape:snap-grids="true"
     inkscape:snap-smooth-nodes="true"><inkscape:grid
       type="xygrid"
       id="grid823" /></sodipodi:namedview><style
     type="text/css"
     id="style3408">
	.st0{fill:#77787B;}
</style><path
     style="fill:#77787b;fill-opacity:1;stroke-width:1.00540709"
     d="M 324.65039 78.675781 A 237.5 237.5 0 0 0 87.150391 316.17578 A 237.5 237.5 0 0 0 324.65039 553.67578 A 237.5 237.5 0 0 0 562.15039 316.17578 A 237.5 237.5 0 0 0 324.65039 78.675781 z M 324.65039 191.17578 A 125 125 0 0 1 449.65039 316.17578 A 125 125 0 0 1 324.65039 441.17578 A 125 125 0 0 1 199.65039 316.17578 A 125 125 0 0 1 324.65039 191.17578 z "
     id="path11" /><g
     id="g841"><rect
       y="27.18919"
       x="268.77991"
       height="85.62162"
       width="102.44016"
       id="rect821"
       style="fill:#77787b;fill-opacity:1" /><rect
       style="fill:#77787b;fill-opacity:1"
       id="rect837"
       width="102.44016"
       height="85.62162"
       x="268.77991"
       y="507.18918" /></g><g
     id="g847"
     transform="rotate(-45,319.99999,309.99999)"><rect
       style="fill:#77787b;fill-opacity:1"
       id="rect843"
       width="102.44016"
       height="85.62162"
       x="268.77991"
       y="27.18919" /><rect
       y="507.18918"
       x="268.77991"
       height="85.62162"
       width="102.44016"
       id="rect845"
       style="fill:#77787b;fill-opacity:1" /></g><g
     transform="rotate(-90,319.99999,309.99999)"
     id="g853"><rect
       y="27.18919"
       x="268.77991"
       height="85.62162"
       width="102.44016"
       id="rect849"
       style="fill:#77787b;fill-opacity:1" /><rect
       style="fill:#77787b;fill-opacity:1"
       id="rect851"
       width="102.44016"
       height="85.62162"
       x="268.77991"
       y="507.18918" /></g><g
     id="g859"
     transform="rotate(-135,319.99999,309.99999)"><rect
       style="fill:#77787b;fill-opacity:1"
       id="rect855"
       width="102.44016"
       height="85.62162"
       x="268.77991"
       y="27.18919" /><rect
       y="507.18918"
       x="268.77991"
       height="85.62162"
       width="102.44016"
       id="rect857"
       style="fill:#77787b;fill-opacity:1" /></g></svg>